<?xml version="1.0" encoding="utf-8"?>
<svg width="173.39px" height="60px" viewBox="0 0 174 60.045" version="1.1" xmlns="http://www.w3.org/2000/svg">
  <title>garvan-logo</title>
  <desc>Created with Sketch.</desc>
  <g id="garvan-logo" stroke="none" stroke-width="1" fill="none" fill-rule="evenodd" transform="matrix(1.35, 0, 0, 1.35, -0.7, -0.7)">
    <path d="M124.257659,25.6478598 C124.442687,25.3420067 124.678449,25.1053465 124.966933,24.9378793 C125.255418,24.7704122 125.569766,24.6861772 125.910974,24.6861772 C126.45611,24.6861772 126.861978,24.8416108 127.127583,25.1504724 C127.394182,25.4603367 127.528477,25.9236291 127.531461,26.5433578 L127.531461,29.9047343 L126.972398,29.9047343 L126.972398,26.5383438 C126.969414,26.0800654 126.872921,25.7391144 126.683914,25.5154906 C126.493912,25.290864 126.1915,25.1795535 125.77469,25.1795535 C125.427514,25.1795535 125.119134,25.2888584 124.851539,25.508471 C124.583945,25.7280836 124.385985,26.0239088 124.257659,26.3959466 L124.257659,29.9047343 L123.698596,29.9047343 L123.698596,22.6314456 L124.257659,22.6314456 L124.257659,25.6478598 Z M120.972914,29.5226685 C121.363861,29.5226685 121.692136,29.411358 121.956746,29.188737 C122.221356,28.966116 122.364604,28.6773104 122.386489,28.3243258 L122.926651,28.3243258 C122.910735,28.6361957 122.814242,28.9219929 122.635182,29.178709 C122.457118,29.4364279 122.220361,29.6369874 121.923919,29.782393 C121.628471,29.9277986 121.311138,30 120.972914,30 C120.305421,30 119.777196,29.767351 119.387244,29.2990447 C118.997293,28.832744 118.802317,28.2039901 118.802317,27.4147886 L118.802317,27.2443131 C118.802317,26.7389033 118.889857,26.2926585 119.064937,25.9045759 C119.241012,25.5154906 119.49269,25.2156542 119.818976,25.004064 C120.146257,24.7934765 120.529245,24.68718 120.967941,24.68718 C121.525014,24.68718 121.9846,24.8546472 122.346698,25.1895815 C122.708796,25.523513 122.901782,25.9647438 122.926651,26.5102655 L122.386489,26.5102655 C122.361619,26.1091466 122.218372,25.7862458 121.956746,25.5395577 C121.695121,25.2938724 121.36585,25.1705283 120.967941,25.1705283 C120.460606,25.1705283 120.066675,25.355043 119.786149,25.7240724 C119.505622,26.0941046 119.366354,26.611548 119.366354,27.2774054 L119.366354,27.4428669 C119.366354,28.0966908 119.505622,28.6071146 119.786149,28.9731356 C120.066675,29.3391566 120.462595,29.5226685 120.972914,29.5226685 L120.972914,29.5226685 Z M118.678965,25.2647913 C118.559592,25.2427297 118.433256,25.2316989 118.298961,25.2316989 C117.947806,25.2316989 117.651363,25.3309759 117.408638,25.5275241 C117.165913,25.7250752 116.992823,26.0118752 116.889366,26.3869214 L116.889366,29.9057371 L116.330303,29.9057371 L116.330303,24.7824458 L116.879418,24.7824458 L116.889366,25.5967172 C117.186804,24.9900248 117.664295,24.68718 118.321841,24.68718 C118.479015,24.68718 118.602367,24.707236 118.692892,24.7483507 L118.678965,25.2647913 Z M113.043569,29.4986014 C113.419593,29.4986014 113.754832,29.4073468 114.051275,29.2238349 C114.346723,29.040323 114.562589,28.7966433 114.696883,28.4897873 L114.696883,27.3626432 L113.691167,27.3626432 C113.131109,27.3686599 112.692413,27.4729509 112.376075,27.6725075 C112.059737,27.873067 111.901568,28.1488362 111.901568,28.4998153 C111.901568,28.7866153 112.007014,29.025281 112.218901,29.2148097 C112.429793,29.4033356 112.705345,29.4986014 113.043569,29.4986014 L113.043569,29.4986014 Z M114.809293,29.9057371 C114.753586,29.7442867 114.717774,29.5066237 114.701857,29.1907426 C114.503897,29.4494643 114.253214,29.649021 113.947818,29.7894126 C113.642423,29.9298042 113.319121,30 112.977913,30 C112.488485,30 112.093559,29.8636196 111.791148,29.5888531 C111.488736,29.3140867 111.337531,28.966116 111.337531,28.5469467 C111.337531,28.0475537 111.544444,27.6534544 111.95628,27.3626432 C112.367122,27.071832 112.941107,26.9274291 113.67724,26.9274291 L114.696883,26.9274291 L114.696883,26.3448039 C114.696883,25.9787829 114.584474,25.6909801 114.36065,25.4803927 C114.136826,25.270808 113.81054,25.1655143 113.381792,25.1655143 C112.989851,25.1655143 112.665554,25.2667969 112.408903,25.4683591 C112.152251,25.6709242 112.023925,25.9136011 112.023925,26.1973927 L111.459888,26.1933815 C111.459888,25.7862458 111.6479,25.4332612 112.023925,25.1344276 C112.39995,24.8365968 112.861525,24.68718 113.409646,24.68718 C113.976667,24.68718 114.423321,24.83058 114.750601,25.1153745 C115.077882,25.4011717 115.246994,25.800285 115.255947,26.3117116 L115.255947,28.7364754 C115.255947,29.2318573 115.307675,29.6028923 115.411131,29.8485776 L115.411131,29.9057371 L114.809293,29.9057371 Z M108.891381,25.1705283 C108.468602,25.1705283 108.112472,25.3259619 107.822993,25.6388346 C107.532519,25.9517074 107.356444,26.3718795 107.293773,26.898348 L110.342756,26.898348 L110.342756,26.8371774 C110.327835,26.3448039 110.187572,25.943685 109.924951,25.6338207 C109.662331,25.3249591 109.317144,25.1705283 108.891381,25.1705283 L108.891381,25.1705283 Z M108.994837,30 C108.56211,30 108.172159,29.8927007 107.822993,29.6781021 C107.473827,29.4635035 107.202254,29.1646699 107.007278,28.7805985 C106.813297,28.39753 106.715809,27.9673299 106.715809,27.4910012 L106.715809,27.2874334 C106.715809,26.7940571 106.811308,26.3508207 107.000315,25.9567214 C107.190317,25.5616193 107.453932,25.2517549 107.792155,25.0261255 C108.130378,24.8004961 108.496455,24.68718 108.891381,24.68718 C109.508141,24.68718 109.99757,24.8997731 110.359668,25.3239563 C110.720771,25.7491423 110.90182,26.3287592 110.90182,27.0648124 L110.90182,27.3816963 L107.274873,27.3816963 L107.274873,27.4910012 C107.274873,28.0716208 107.440005,28.5549691 107.771265,28.9420489 C108.10153,29.3291286 108.517346,29.5226685 109.018712,29.5226685 C109.319134,29.5226685 109.584738,29.4665118 109.814531,29.3562041 C110.044324,29.2458964 110.254221,29.0694041 110.441239,28.8257244 L110.793389,29.0954769 C110.380558,29.6991608 109.780709,30 108.994837,30 L108.994837,30 Z M105.620563,28.6031034 C105.620563,28.3223202 105.508153,28.0966908 105.284329,27.9262152 C105.060505,27.7557397 104.723276,27.6223677 104.271649,27.5260991 C103.821016,27.4298306 103.470856,27.3195229 103.222162,27.195176 C102.973468,27.0698264 102.78844,26.9174012 102.668073,26.7379005 C102.547705,26.5573969 102.487024,26.3397899 102.487024,26.0840766 C102.487024,25.6799493 102.655141,25.3460178 102.989385,25.0822822 C103.324624,24.8195493 103.753372,24.68718 104.276623,24.68718 C104.843644,24.68718 105.298256,24.8285744 105.641453,25.1113633 C105.98465,25.3931493 106.155751,25.7621787 106.155751,26.2164459 L105.591714,26.2164459 C105.591714,25.9166095 105.467368,25.6679158 105.218674,25.4683591 C104.96998,25.2698052 104.655632,25.1705283 104.276623,25.1705283 C103.907562,25.1705283 103.610124,25.2527577 103.3863,25.419222 C103.162476,25.5846836 103.051061,25.800285 103.051061,26.0650235 C103.051061,26.3207368 103.143575,26.5192907 103.330592,26.6596823 C103.516615,26.8000739 103.856828,26.9284319 104.349241,27.0457592 C104.842649,27.1620837 105.212705,27.2874334 105.458415,27.4198026 C105.704124,27.5521718 105.886168,27.7116166 106.005541,27.8981369 C106.124913,28.0836544 106.1846,28.3102866 106.1846,28.5750251 C106.1846,29.0072307 106.011509,29.3531958 105.665328,29.6119175 C105.319146,29.8706392 104.867519,30 104.30945,30 C103.71756,30 103.238078,29.8566 102.870012,29.5667916 C102.501945,29.277986 102.317912,28.9129678 102.317912,28.4707342 L102.881949,28.4707342 C102.903834,28.8026601 103.042108,29.060379 103.297765,29.2448937 C103.552427,29.4294083 103.889656,29.5226685 104.30945,29.5226685 C104.701391,29.5226685 105.01773,29.4354251 105.258465,29.2619412 C105.500195,29.0884573 105.620563,28.8688447 105.620563,28.6031034 L105.620563,28.6031034 Z M99.8836996,25.1705283 C99.4609205,25.1705283 99.1047913,25.3259619 98.815312,25.6388346 C98.5258327,25.9517074 98.3497576,26.3718795 98.2870868,26.898348 L101.335075,26.898348 L101.335075,26.8371774 C101.320154,26.3448039 101.180885,25.943685 100.91727,25.6338207 C100.65465,25.3249591 100.309463,25.1705283 99.8836996,25.1705283 L99.8836996,25.1705283 Z M99.9871561,30 C99.555424,30 99.1644777,29.8927007 98.815312,29.6781021 C98.4661462,29.4635035 98.1945728,29.1646699 98.0005918,28.7805985 C97.8056161,28.39753 97.709123,27.9673299 97.709123,27.4910012 L97.709123,27.2874334 C97.709123,26.7940571 97.8036265,26.3508207 97.9926336,25.9567214 C98.1826355,25.5616193 98.4462507,25.2517549 98.784474,25.0261255 C99.1226972,24.8004961 99.4897689,24.68718 99.8836996,24.68718 C100.50046,24.68718 100.989889,24.8997731 101.351986,25.3239563 C101.714084,25.7491423 101.894138,26.3287592 101.894138,27.0648124 L101.894138,27.3816963 L98.2681861,27.3816963 L98.2681861,27.4910012 C98.2681861,28.0716208 98.4333186,28.5549691 98.7635837,28.9420489 C99.0938488,29.3291286 99.5096644,29.5226685 100.011031,29.5226685 C100.311452,29.5226685 100.577057,29.4665118 100.80685,29.3562041 C101.037638,29.2458964 101.24654,29.0694041 101.434553,28.8257244 L101.786703,29.0954769 C101.372877,29.6991608 100.773028,30 99.9871561,30 L99.9871561,30 Z M93.1321665,26.5383438 L94.9038595,26.5383438 C95.3893093,26.5383438 95.7782661,26.3999578 96.0727193,26.1211801 C96.3671724,25.8434053 96.514399,25.4823983 96.514399,25.0401647 C96.514399,24.5528052 96.3612038,24.1747506 96.0548133,23.906001 C95.7474281,23.6372513 95.3166908,23.5028764 94.7626015,23.5028764 L93.1321665,23.5028764 L93.1321665,26.5383438 Z M95.1197255,27.0317201 L93.1321665,27.0317201 L93.1321665,29.9057371 L92.5502235,29.9057371 L92.5502235,23.010503 L94.7715545,23.010503 C95.5017188,23.010503 96.0717245,23.1890009 96.4815715,23.5449939 C96.8924133,23.9019898 97.0973368,24.3993772 97.0973368,25.0401647 C97.0973368,25.4813955 96.9690109,25.8704808 96.7123591,26.2084235 C96.4547126,26.5453634 96.1105207,26.7790151 95.6787886,26.908376 L97.3888056,29.8445664 L97.3888056,29.9057371 L96.7730404,29.9057371 L95.1197255,27.0317201 Z M88.2906,29.9057371 L88.854637,29.9057371 L88.854637,22.6324484 L88.2906,22.6324484 L88.2906,29.9057371 Z M84.980986,29.4986014 C85.3570106,29.4986014 85.6922496,29.4073468 85.9886923,29.2238349 C86.2841403,29.040323 86.5000063,28.7966433 86.6343008,28.4897873 L86.6343008,27.3626432 L85.6295788,27.3626432 C85.0685261,27.3686599 84.6298306,27.4729509 84.3134924,27.6725075 C83.9971542,27.873067 83.8389851,28.1488362 83.8389851,28.4998153 C83.8389851,28.7866153 83.9444312,29.025281 84.1563181,29.2148097 C84.3672102,29.4033356 84.6427627,29.4986014 84.980986,29.4986014 L84.980986,29.4986014 Z M86.7477051,29.9057371 C86.691003,29.7442867 86.6551911,29.5066237 86.6392747,29.1907426 C86.4413146,29.4494643 86.1906315,29.649021 85.8852358,29.7894126 C85.5798401,29.9298042 85.2565384,30 84.9153309,30 C84.4268967,30 84.0309765,29.8636196 83.7285651,29.5888531 C83.4261537,29.3140867 83.2759428,28.966116 83.2759428,28.5469467 C83.2759428,28.0475537 83.4818611,27.6534544 83.8936977,27.3626432 C84.3045394,27.071832 84.879519,26.9274291 85.6146572,26.9274291 L86.6343008,26.9274291 L86.6343008,26.3448039 C86.6343008,25.9787829 86.5228861,25.6909801 86.2990619,25.4803927 C86.0742429,25.270808 85.7479569,25.1655143 85.3192092,25.1655143 C84.9272681,25.1655143 84.6029717,25.2667969 84.34632,25.4683591 C84.0896682,25.6709242 83.9613423,25.9136011 83.9613423,26.1973927 L83.3973053,26.1933815 C83.3973053,25.7862458 83.5853176,25.4332612 83.9613423,25.1344276 C84.337367,24.8365968 84.7989423,24.68718 85.3470629,24.68718 C85.9140842,24.68718 86.3607379,24.83058 86.6880186,25.1153745 C87.0152994,25.4011717 87.184411,25.800285 87.193364,26.3117116 L87.193364,28.7364754 C87.193364,29.2318573 87.2450922,29.6028923 87.3485488,29.8485776 L87.3485488,29.9057371 L86.7477051,29.9057371 Z M80.7860228,29.5226685 C81.1769691,29.5226685 81.5052446,29.411358 81.7698546,29.188737 C82.0344645,28.966116 82.177712,28.6773104 82.1995971,28.3243258 L82.7397595,28.3243258 C82.7248379,28.6361957 82.62735,28.9219929 82.4492854,29.178709 C82.270226,29.4364279 82.0334697,29.6369874 81.737027,29.782393 C81.441579,29.9277986 81.124246,30 80.7860228,30 C80.1185292,30 79.5903041,29.767351 79.2003526,29.2990447 C78.8104011,28.832744 78.6154253,28.2039901 78.6154253,27.4147886 L78.6154253,27.2443131 C78.6154253,26.7389033 78.7029654,26.2926585 78.8790405,25.9045759 C79.0541208,25.5154906 79.3048039,25.2156542 79.6330794,25.004064 C79.9593654,24.7934765 80.3423535,24.68718 80.7810489,24.68718 C81.3381225,24.68718 81.7977082,24.8546472 82.1598061,25.1895815 C82.5219039,25.523513 82.7148901,25.9647438 82.7397595,26.5102655 L82.1995971,26.5102655 C82.1747277,26.1091466 82.0314802,25.7862458 81.7698546,25.5395577 C81.5082289,25.2938724 81.1789586,25.1705283 80.7810489,25.1705283 C80.273714,25.1705283 79.8797834,25.355043 79.5992571,25.7240724 C79.3197255,26.0941046 79.1794623,26.611548 79.1794623,27.2774054 L79.1794623,27.4428669 C79.1794623,28.0966908 79.3197255,28.6071146 79.5992571,28.9731356 C79.8797834,29.3391566 80.2757036,29.5226685 80.7860228,29.5226685 L80.7860228,29.5226685 Z M77.2177674,29.9057371 L77.7818044,29.9057371 L77.7818044,24.781443 L77.2177674,24.781443 L77.2177674,29.9057371 Z M77.1192848,23.302317 C77.1192848,23.1950177 77.1541019,23.1047659 77.2237361,23.0315617 C77.2923755,22.9573547 77.3858843,22.921254 77.5052572,22.921254 C77.6236353,22.921254 77.7191337,22.9573547 77.7897626,23.0315617 C77.8593968,23.1047659 77.8952087,23.1950177 77.8952087,23.302317 C77.8952087,23.4086135 77.8593968,23.4978625 77.7897626,23.5700639 C77.7191337,23.6422653 77.6236353,23.678366 77.5052572,23.678366 C77.3858843,23.678366 77.2923755,23.6422653 77.2237361,23.5700639 C77.1541019,23.4978625 77.1192848,23.4086135 77.1192848,23.302317 L77.1192848,23.302317 Z M72.5900774,27.3957355 C72.5900774,28.0495593 72.7203929,28.5649971 72.980029,28.9420489 C73.2406598,29.3191006 73.6067368,29.5076265 74.0792545,29.5076265 C74.7716175,29.5076265 75.263036,29.2007706 75.5545048,28.5840502 L75.5545048,26.1793424 C75.263036,25.5124822 74.7746018,25.1795535 74.0892023,25.1795535 C73.6156897,25.1795535 73.2476232,25.3670766 72.9850028,25.74112 C72.7213876,26.1151634 72.5900774,26.6667019 72.5900774,27.3957355 L72.5900774,27.3957355 Z M72.0220613,27.2964585 C72.0220613,26.5012403 72.1981364,25.8674724 72.5502865,25.3951549 C72.9024366,24.9228374 73.380923,24.68718 73.9857458,24.68718 C74.6711452,24.68718 75.1943965,24.9599409 75.5545048,25.5064654 L75.5545048,22.6324484 L76.113568,22.6324484 L76.113568,29.9057371 L75.5873324,29.9057371 L75.5644526,29.2238349 C75.2043443,29.7412783 74.6741296,30 73.975798,30 C73.3908707,30 72.918353,29.7633398 72.5602342,29.2880139 C72.2011207,28.812688 72.0220613,28.1708978 72.0220613,27.3626432 L72.0220613,27.2964585 Z M69.4694705,25.1705283 C69.0466914,25.1705283 68.6905622,25.3259619 68.4010829,25.6388346 C68.1106088,25.9517074 67.9345338,26.3718795 67.871863,26.898348 L70.9208462,26.898348 L70.9208462,26.8371774 C70.9049298,26.3448039 70.7656614,25.943685 70.503041,25.6338207 C70.2404206,25.3249591 69.8952339,25.1705283 69.4694705,25.1705283 L69.4694705,25.1705283 Z M69.572927,30 C69.1402002,30 68.7492539,29.8927007 68.4010829,29.6781021 C68.0509224,29.4635035 67.779349,29.1646699 67.585368,28.7805985 C67.391387,28.39753 67.2938991,27.9673299 67.2938991,27.4910012 L67.2938991,27.2874334 C67.2938991,26.7940571 67.3893975,26.3508207 67.5784046,25.9567214 C67.7684065,25.5616193 68.0320217,25.2517549 68.3702449,25.0261255 C68.7084682,24.8004961 69.0745451,24.68718 69.4694705,24.68718 C70.0862306,24.68718 70.5756595,24.8997731 70.9377574,25.3239563 C71.2988604,25.7491423 71.4799093,26.3287592 71.4799093,27.0648124 L71.4799093,27.3816963 L67.8529623,27.3816963 L67.8529623,27.4910012 C67.8529623,28.0716208 68.0180948,28.5549691 68.3483599,28.9420489 C68.6796197,29.3291286 69.0954354,29.5226685 69.5958068,29.5226685 C69.8972234,29.5226685 70.1618334,29.4665118 70.392621,29.3562041 C70.6224139,29.2458964 70.8313165,29.0694041 71.0193288,28.8257244 L71.3714789,29.0954769 C70.9586476,29.6991608 70.3587987,30 69.572927,30 L69.572927,30 Z M60.5433608,23.010503 L63.0651136,29.0954769 L65.597809,23.010503 L66.3677643,23.010503 L66.3677643,29.9057371 L65.7907952,29.9057371 L65.7907952,26.903362 L65.8375496,23.8257772 L63.2909274,29.9057371 L62.8452685,29.9057371 L60.3085941,23.8488415 L60.3553485,26.8843089 L60.3553485,29.9057371 L59.7773846,29.9057371 L59.7773846,23.010503 L60.5433608,23.010503 Z M55.0064471,29.9057371 L55.0064471,25.2457381 L54.1648681,25.2457381 L54.1648681,24.7824458 L55.0064471,24.7824458 L55.0064471,24.1617143 C55.0064471,23.6372513 55.1387521,23.2351296 55.4033621,22.9543463 C55.667972,22.6725603 56.0370333,22.5321687 56.5095511,22.5321687 C56.7224328,22.5321687 56.9213876,22.5592442 57.1064157,22.6123925 L57.0636404,23.0817016 C56.9074608,23.0435953 56.7363596,23.0245421 56.5523264,23.0245421 C56.2419568,23.0245421 56.0002267,23.1228163 55.8281307,23.3173589 C55.6560348,23.5119016 55.5704842,23.7876709 55.5704842,24.1456695 L55.5704842,24.7824458 L56.7821192,24.7824458 L56.7821192,25.2457381 L55.5704842,25.2457381 L55.5704842,29.9057371 L55.0064471,29.9057371 Z M50.0375496,27.4248166 C50.0375496,28.0365229 50.1947239,28.5399272 50.5090726,28.9320209 C50.824416,29.3261202 51.2362526,29.5226685 51.7475666,29.5226685 C52.2549015,29.5226685 52.6657432,29.3261202 52.9800919,28.9320209 C53.2954354,28.5399272 53.4526097,28.021481 53.4526097,27.3766823 L53.4526097,27.2683802 C53.4526097,26.8762865 53.3799912,26.5182879 53.2367437,26.1933815 C53.0925014,25.8674724 52.8905622,25.6157703 52.6299314,25.4372724 C52.3702953,25.2597773 52.0728578,25.1705283 51.7376188,25.1705283 C51.2362526,25.1705283 50.8283951,25.3680794 50.5120569,25.7641843 C50.1957187,26.1602892 50.0375496,26.6787354 50.0375496,27.3205257 L50.0375496,27.4248166 Z M49.4735126,27.2683802 C49.4735126,26.7760068 49.5680161,26.3317676 49.758018,25.9376682 C49.9470251,25.5425661 50.2146194,25.2357101 50.5608009,25.0160975 C50.9069823,24.7964849 51.2989234,24.68718 51.7376188,24.68718 C52.4140654,24.68718 52.962186,24.9258458 53.3819807,25.4041801 C53.8017755,25.8825144 54.0116729,26.5172851 54.0116729,27.3064865 L54.0116729,27.4248166 C54.0116729,27.9201984 53.9171693,28.3654404 53.7271674,28.7625482 C53.5381603,29.1586531 53.270566,29.4635035 52.9263741,29.6781021 C52.5821822,29.8927007 52.1892464,30 51.7475666,30 C51.0741044,30 50.5269785,29.7613342 50.1051942,29.2829999 C49.6844047,28.8046656 49.4735126,28.1708978 49.4735126,27.3816963 L49.4735126,27.2683802 Z M125.273324,14.4797065 C124.880388,14.4797065 124.563055,14.6180926 124.321325,14.8948646 C124.079595,15.1716367 123.925405,15.5577136 123.858755,16.0530955 L126.586426,16.0530955 L126.586426,15.9457962 C126.554593,15.4634507 126.427262,15.0974297 126.203438,14.8507415 C125.979613,14.6030506 125.669244,14.4797065 125.273324,14.4797065 L125.273324,14.4797065 Z M125.44343,19.9840608 C124.536196,19.9840608 123.801058,19.696258 123.238015,19.1196495 C122.673978,18.5440439 122.392457,17.776904 122.392457,16.8192326 L122.392457,16.6407347 C122.392457,15.9999472 122.514815,15.4263472 122.760524,14.9219401 C123.006233,14.4165303 123.350425,14.0244366 123.794094,13.7426506 C124.237764,13.4618673 124.733161,13.3214757 125.278298,13.3214757 C126.146736,13.3214757 126.817213,13.6002533 127.290726,14.1588114 C127.763244,14.7163667 128,15.506571 128,16.5274186 L128,17.1100438 L123.835875,17.1100438 C123.87865,17.6405236 124.054725,18.0596928 124.36211,18.3685544 C124.671485,18.6774159 125.058452,18.8318467 125.525996,18.8318467 C126.181553,18.8318467 126.715746,18.5640999 127.128578,18.0306117 L127.899528,18.7726817 C127.644866,19.156753 127.303658,19.4545838 126.877895,19.6661741 C126.452131,19.8777643 125.973645,19.9840608 125.44343,19.9840608 L125.44343,19.9840608 Z M120.962967,11.8784504 L120.962967,13.4398058 L122.088056,13.4398058 L122.088056,14.5087877 L120.962967,14.5087877 L120.962967,18.0957935 C120.962967,18.3414789 121.010716,18.5179712 121.107209,18.6272761 C121.203702,18.7355782 121.374803,18.790732 121.622502,18.790732 C121.787635,18.790732 121.954757,18.7706761 122.123868,18.7305642 L122.123868,19.8476804 C121.797582,19.9379321 121.483234,19.9840608 121.180822,19.9840608 C120.081597,19.9840608 119.531486,19.3723545 119.531486,18.1489418 L119.531486,14.5087877 L118.482994,14.5087877 L118.482994,13.4398058 L119.531486,13.4398058 L119.531486,11.8784504 L120.962967,11.8784504 Z M116.62774,19.235974 C116.206951,19.7343643 115.610086,19.9840608 114.837147,19.9840608 C114.145779,19.9840608 113.622527,19.7794902 113.267393,19.3723545 C112.911264,18.964216 112.734194,18.3745712 112.734194,17.6024173 L112.734194,13.4398058 L114.165674,13.4398058 L114.165674,17.5853697 C114.165674,18.4006439 114.500913,18.8077796 115.172386,18.8077796 C115.867733,18.8077796 116.337266,18.5570803 116.579991,18.053676 L116.579991,13.4398058 L118.011471,13.4398058 L118.011471,19.8647279 L116.662557,19.8647279 L116.62774,19.235974 Z M111.013234,11.8784504 L111.013234,13.4398058 L112.138324,13.4398058 L112.138324,14.5087877 L111.013234,14.5087877 L111.013234,18.0957935 C111.013234,18.3414789 111.060983,18.5179712 111.157477,18.6272761 C111.252975,18.7355782 111.425071,18.790732 111.67277,18.790732 C111.837902,18.790732 112.004029,18.7706761 112.173141,18.7305642 L112.173141,19.8476804 C111.84785,19.9379321 111.533501,19.9840608 111.23109,19.9840608 C110.130869,19.9840608 109.581754,19.3723545 109.581754,18.1489418 L109.581754,14.5087877 L108.533262,14.5087877 L108.533262,13.4398058 L109.581754,13.4398058 L109.581754,11.8784504 L111.013234,11.8784504 Z M106.58052,19.8647279 L108.012,19.8647279 L108.012,13.4398058 L106.58052,13.4398058 L106.58052,19.8647279 Z M106.491985,11.7711511 C106.491985,11.5495329 106.562614,11.366021 106.701883,11.2196126 C106.841151,11.0732042 107.040106,11 107.299742,11 C107.558383,11 107.759328,11.0732042 107.900586,11.2196126 C108.041843,11.366021 108.112472,11.5495329 108.112472,11.7711511 C108.112472,11.9887581 108.041843,12.1702644 107.900586,12.3146672 C107.759328,12.45907 107.558383,12.5312714 107.299742,12.5312714 C107.040106,12.5312714 106.841151,12.45907 106.701883,12.3146672 C106.562614,12.1702644 106.491985,11.9887581 106.491985,11.7711511 L106.491985,11.7711511 Z M104.768041,11.8784504 L104.768041,13.4398058 L105.892136,13.4398058 L105.892136,14.5087877 L104.768041,14.5087877 L104.768041,18.0957935 C104.768041,18.3414789 104.81579,18.5179712 104.912284,18.6272761 C105.007782,18.7355782 105.179878,18.790732 105.427577,18.790732 C105.592709,18.790732 105.758836,18.7706761 105.927948,18.7305642 L105.927948,19.8476804 C105.601662,19.9379321 105.288308,19.9840608 104.985897,19.9840608 C103.885677,19.9840608 103.336561,19.3723545 103.336561,18.1489418 L103.336561,14.5087877 L102.288069,14.5087877 L102.288069,13.4398058 L103.336561,13.4398058 L103.336561,11.8784504 L104.768041,11.8784504 Z M100.603916,18.1188579 C100.603916,17.8621418 100.49847,17.6655935 100.288573,17.5312187 C100.078675,17.3968438 99.7295095,17.2785137 99.2430649,17.1752256 C98.7556255,17.0719375 98.3497576,16.9415739 98.0234716,16.7831319 C97.3092237,16.4351612 96.951105,15.9297514 96.951105,15.268908 C96.951105,14.7153639 97.1828874,14.2520716 97.6464522,13.879031 C98.110017,13.5069932 98.6989234,13.3214757 99.4141661,13.3214757 C100.175168,13.3214757 100.790934,13.5110044 101.260467,13.8910645 C101.730001,14.2711247 101.964767,14.764501 101.964767,15.3701905 L100.533287,15.3701905 C100.533287,15.0934185 100.430825,14.8627751 100.226897,14.6782604 C100.021973,14.4937457 99.7513946,14.4024912 99.4141661,14.4024912 C99.0998174,14.4024912 98.8431656,14.4756954 98.6452056,14.6221038 C98.4472455,14.7685122 98.3477681,14.9640576 98.3477681,15.209743 C98.3477681,15.4313612 98.4402821,15.6038423 98.6243153,15.7261836 C98.8093433,15.8495276 99.1823837,15.9728717 99.7434364,16.0972186 C100.305484,16.2225682 100.746169,16.3709822 101.065491,16.5424605 C101.385809,16.7149417 101.62356,16.9215179 101.778745,17.1631921 C101.933929,17.4048662 102.011522,17.697683 102.011522,18.0426453 C102.011522,18.6202565 101.773771,19.0885628 101.299263,19.4465615 C100.823761,19.8045601 100.201033,19.9840608 99.4310773,19.9840608 C98.9088208,19.9840608 98.4432664,19.8887951 98.0354089,19.6992664 C97.6265567,19.5087349 97.3092237,19.2480076 97.0814204,18.9150789 C96.8536171,18.5821502 96.739218,18.2241516 96.739218,17.8400802 L98.1299125,17.8400802 C98.1488132,18.1810313 98.2771391,18.4427614 98.5129006,18.6272761 C98.7476673,18.810788 99.0600264,18.9030453 99.4489832,18.9030453 C99.8260026,18.9030453 100.112498,18.8308439 100.309463,18.6864411 C100.505433,18.5420383 100.603916,18.3525096 100.603916,18.1188579 L100.603916,18.1188579 Z M92.0846691,13.4398058 L92.1254549,14.1818758 C92.5969779,13.6082757 93.2157275,13.3214757 93.9807089,13.3214757 C95.3087326,13.3214757 95.9841843,14.0876128 96.0070642,15.6188843 L96.0070642,19.8647279 L94.575584,19.8647279 L94.575584,15.7021164 C94.575584,15.2949807 94.4890386,14.9931388 94.3139583,14.7965905 C94.138878,14.601045 93.8533778,14.5027709 93.4564629,14.5027709 C92.8794938,14.5027709 92.4497513,14.7665066 92.1672354,15.2929751 L92.1672354,19.8647279 L90.7357552,19.8647279 L90.7357552,13.4398058 L92.0846691,13.4398058 Z M87.9692879,19.8647279 L89.4534912,19.8647279 L89.4534912,11.2186098 L87.9692879,11.2186098 L87.9692879,19.8647279 Z M80.2010955,13.4398058 L80.242876,14.1818758 C80.7134043,13.6082757 81.3321539,13.3214757 82.0981301,13.3214757 C83.425159,13.3214757 84.1006107,14.0876128 84.1244853,15.6188843 L84.1244853,19.8647279 L82.6930051,19.8647279 L82.6930051,15.7021164 C82.6930051,15.2949807 82.605465,14.9931388 82.4303847,14.7965905 C82.2562992,14.601045 81.970799,14.5027709 81.573884,14.5027709 C80.9969149,14.5027709 80.5661777,14.7665066 80.2836618,15.2929751 L80.2836618,19.8647279 L78.8521816,19.8647279 L78.8521816,13.4398058 L80.2010955,13.4398058 Z M74.9715671,18.8258299 C75.254083,18.8258299 75.5196877,18.7566369 75.7693761,18.6182509 C76.0190644,18.4798649 76.206082,18.2933446 76.3324183,18.0596928 L76.3324183,16.8483137 L75.5604735,16.8483137 C75.0302588,16.8483137 74.6313543,16.9415739 74.3647548,17.1280942 C74.0971605,17.3136117 73.9638607,17.5773473 73.9638607,17.9172956 C73.9638607,18.1950705 74.05538,18.4156859 74.2374237,18.5791418 C74.4204621,18.7436006 74.6651766,18.8258299 74.9715671,18.8258299 L74.9715671,18.8258299 Z M76.5443052,19.8647279 C76.4816345,19.7423867 76.4259271,19.54283 76.3791727,19.2650552 C75.9235661,19.7443923 75.3664925,19.9840608 74.7059623,19.9840608 C74.0663225,19.9840608 73.544066,19.7995461 73.1391928,19.4315195 C72.7353145,19.0634929 72.5323805,18.6082229 72.5323805,18.0657096 C72.5323805,17.3807991 72.7850532,16.8553333 73.2894038,16.4893123 C73.7937543,16.1232913 74.5159605,15.9397794 75.4540326,15.9397794 L76.3324183,15.9397794 L76.3324183,15.5186045 C76.3324183,15.1856758 76.2399043,14.9199346 76.0548763,14.7193751 C75.870843,14.5198184 75.5903167,14.4195387 75.2132972,14.4195387 C74.8870113,14.4195387 74.619417,14.5017681 74.4115092,14.6662268 C74.2036013,14.8306856 74.09915,15.0392674 74.09915,15.2929751 L72.6686646,15.2929751 C72.6686646,14.9399905 72.7840584,14.611073 73.0158408,14.304217 C73.2476232,13.9973611 73.5629667,13.7566897 73.9608764,13.582203 C74.3597809,13.4087191 74.804445,13.3214757 75.2948687,13.3214757 C76.0409494,13.3214757 76.6368192,13.5100016 77.0804886,13.8880562 C77.5241579,14.2671135 77.7519612,14.7975933 77.7638985,15.4825038 L77.7638985,18.380588 C77.7638985,18.9581992 77.8434805,19.4194859 78.0046339,19.7644482 L78.0046339,19.8647279 L76.5443052,19.8647279 Z M69.6007807,18.0366285 L70.9496946,13.4398058 L72.428924,13.4398058 L70.2195303,19.8647279 L68.9770572,19.8647279 L66.7497576,13.4398058 L68.2349556,13.4398058 L69.6007807,18.0366285 Z M66.2444123,14.7584842 C66.0563999,14.7263947 65.8614242,14.7103499 65.6614745,14.7103499 C65.0059183,14.7103499 64.5632437,14.9640576 64.3364352,15.4704703 L64.3364352,19.8647279 L62.904955,19.8647279 L62.904955,13.4398058 L64.2707801,13.4398058 L64.306592,14.1588114 C64.6517786,13.6002533 65.1312598,13.3214757 65.7440408,13.3214757 C65.9479695,13.3214757 66.1170812,13.349554 66.2503809,13.4047079 L66.2444123,14.7584842 Z M59.013398,18.8258299 C59.2959139,18.8258299 59.5615186,18.7566369 59.811207,18.6182509 C60.0608953,18.4798649 60.2479129,18.2933446 60.3742492,18.0596928 L60.3742492,16.8483137 L59.6023044,16.8483137 C59.0720897,16.8483137 58.6731852,16.9415739 58.4065857,17.1280942 C58.1389914,17.3136117 58.0056916,17.5773473 58.0056916,17.9172956 C58.0056916,18.1950705 58.0972109,18.4156859 58.2792545,18.5791418 C58.462293,18.7436006 58.7070075,18.8258299 59.013398,18.8258299 L59.013398,18.8258299 Z M60.5861361,19.8647279 C60.5234653,19.7423867 60.467758,19.54283 60.4210036,19.2650552 C59.965397,19.7443923 59.4073286,19.9840608 58.7477932,19.9840608 C58.1081534,19.9840608 57.5858969,19.7995461 57.1810237,19.4315195 C56.7761506,19.0634929 56.5742114,18.6082229 56.5742114,18.0657096 C56.5742114,17.3807991 56.8268841,16.8553333 57.3312347,16.4893123 C57.8355852,16.1232913 58.5577913,15.9397794 59.4958635,15.9397794 L60.3742492,15.9397794 L60.3742492,15.5186045 C60.3742492,15.1856758 60.2817352,14.9199346 60.0967072,14.7193751 C59.9126739,14.5198184 59.6321476,14.4195387 59.2541334,14.4195387 C58.9288422,14.4195387 58.6612479,14.5017681 58.45334,14.6662268 C58.2454322,14.8306856 58.1409809,15.0392674 58.1409809,15.2929751 L56.7095007,15.2929751 C56.7095007,14.9399905 56.8258893,14.611073 57.0576717,14.304217 C57.2894541,13.9973611 57.6038028,13.7566897 58.0027073,13.582203 C58.4016118,13.4087191 58.8462759,13.3214757 59.3366996,13.3214757 C60.0827803,13.3214757 60.6776554,13.5100016 61.1223195,13.8880562 C61.5659888,14.2671135 61.7937921,14.7975933 61.8057294,15.4825038 L61.8057294,18.380588 C61.8057294,18.9581992 61.8853113,19.4194859 62.0464648,19.7644482 L62.0464648,19.8647279 L60.5861361,19.8647279 Z M55.8211673,18.7425978 C55.5107977,19.1507363 55.0810552,19.4595978 54.530945,19.6691825 C53.9818296,19.8787671 53.3571114,19.9840608 52.6577851,19.9840608 C51.939558,19.9840608 51.3029025,19.819602 50.749808,19.4906845 C50.1957187,19.1627698 49.7689605,18.6924579 49.4685387,18.0807516 C49.1681169,17.4690452 49.0119373,16.7560564 49,15.9397794 L49,15.2628912 C49,13.9562464 49.3103696,12.9364015 49.9311087,12.2023539 C50.5508531,11.4673035 51.4173015,11.1002797 52.5284644,11.1002797 C53.4824529,11.1002797 54.2404709,11.3389455 54.8025184,11.816277 C55.3635711,12.2936085 55.7017944,12.978519 55.8151986,13.8730142 L54.35487,13.8730142 C54.1897375,12.8321106 53.5908833,12.3116588 52.5583076,12.3116588 C51.8908141,12.3116588 51.3824844,12.5543358 51.0353082,13.0386869 C50.688132,13.5230379 50.5080778,14.2340212 50.4961405,15.1716367 L50.4961405,15.8354885 C50.4961405,16.7690927 50.6911163,17.4941152 51.0820626,18.0105558 C51.4730089,18.5259936 52.0161556,18.7847153 52.7115029,18.7847153 C53.4725052,18.7847153 54.0146572,18.6102285 54.336964,18.2622579 L54.336964,16.5695361 L52.5702449,16.5695361 L52.5702449,15.4293556 L55.8211673,15.4293556 L55.8211673,18.7425978 Z" id="Fill-228" fill="#000000"/>
    <path d="M7.93375512,36.2162457 C9.81441508,33.6210986 13.4536658,31.8307944 17.1762809,30.1476703 C13.9369805,28.1390364 11.4846793,25.6203047 11.4846793,22 C11.4846793,16.0455515 18.1200844,13.0703121 23.9754373,10.4453927 C27.5154447,8.85753982 31.4434934,7.09502307 32.6989207,5.10028284 C29.6045156,3.13729966 25.9354919,2 22.0004962,2 C10.9537278,2 2,10.9544981 2,22 C2,27.5614549 4.27068602,32.590979 7.93375512,36.2162457 M23.9754373,33.5546073 C23.323409,33.2618469 22.6614564,32.9651169 22.0004962,32.6604476 C21.3385436,32.9651169 20.676591,33.2618469 20.0245627,33.5546073 C16.4845553,35.1424602 12.5565066,36.9049769 11.3010793,38.8997172 C14.3954844,40.8627003 18.0645081,42 22.0004962,42 C25.9354919,42 29.6045156,40.8627003 32.6989207,38.8997172 C31.4434934,36.9049769 27.5154447,35.1424602 23.9754373,33.5546073 M42,22 C42,27.5614549 39.7303064,32.590979 36.0662449,36.2162457 C34.1855849,33.6210986 30.5463342,31.8307944 26.8237191,30.1476703 C30.062027,28.1390364 32.5153207,25.6203047 32.5153207,22 C32.5153207,18.9136109 30.7319191,16.6280951 28.1992309,14.7762616 C27.5670512,15.0660448 26.9328867,15.3518583 26.302692,15.6337022 C25.4164496,16.0316578 24.4825704,16.4494616 23.5645702,16.8851288 C26.2530703,18.3687788 28.2399206,20.0052598 28.2399206,22 C28.2399206,24.3659009 25.4452301,26.2276584 22.0004962,27.9286459 C18.5547699,26.2276584 15.7600794,24.3659009 15.7600794,22 C15.7600794,18.8143701 20.8254559,16.542748 25.7250961,14.3465489 C29.8139189,12.5135712 34.0009924,10.6349427 36.0672373,7.78474669 C39.7303064,11.4100134 42,16.4395375 42,22" id="Fill-231" fill="#4D00C7"/>
  </g>
</svg>