<svg version="1" xmlns="http://www.w3.org/2000/svg" width="346.667" height="346.667" viewBox="0 0 260.000000 260.000000"><path d="M109.6 13.6c-42.4 7.7-77.9 38.3-91.5 79-13.3 39.8-4.4 84.2 23.2 115.1l5.4 6 5.9-5.9c7.9-8 18.1-14.7 34.6-22.7 7.5-3.6 13.7-6.8 13.7-7.1.1-.3-1.6-1.5-3.7-2.7-5.6-3.2-18.5-15.6-22.2-21.3-4.3-6.7-7-15.8-7-23.3.1-13.8 4.2-23 15.5-34.3 12.3-12.3 23.6-19 63-36.9 21.7-9.9 35.3-17.6 41.8-23.8 6-5.9 6.3-5.5-7.8-12.3-21.5-10.3-48-13.9-70.9-9.8z"/><path d="M207.5 52.2c-10.3 10.3-23.8 18.2-56 32.8-33 14.9-46.9 23.3-53.5 32.3-10.7 14.6-3.4 28.3 22.7 42.8l9.3 5.1 8.4-4.6c26.1-14.2 33.9-27.7 24.4-42-3.3-5-10.8-11.4-18-15.5-2.6-1.4-4.8-2.9-4.8-3.2 0-.3 6.1-3.4 13.6-6.7l13.6-6.1 8.7 8.7c11.9 11.9 16 20.8 16.1 34.9 0 7.5-2.7 16.6-7 23.2-3.7 5.9-14.6 16.4-21.3 20.6-2.5 1.7-4.6 3.2-4.6 3.5 0 .3 6.2 3.5 13.7 7.1 16.5 8 26.7 14.7 34.6 22.7l5.9 5.9 5.4-6c39-43.7 39-111.7 0-155.4l-5.4-6-5.8 5.9zM113 200.7c-21.4 9.8-34.9 17.5-41.3 23.6-6 5.9-6.3 5.5 7.8 12.3 25.9 12.4 55.6 14.8 83.4 6.8 8.4-2.5 24.6-9.6 28.5-12.7 1.9-1.4 1.8-1.6-3.1-6.4-6.5-6.1-20.1-13.9-41.5-23.7-9.2-4.2-16.8-7.6-17-7.6-.2.1-7.7 3.5-16.8 7.7z"/></svg>